<svg viewBox="0 0 141 20" fill="none" xmlns="http://www.w3.org/2000/svg">
    <path d="M12.5249 8.24673C9.15467 11.6649 11.7993 14.4602 18.4278 14.5582L17.7961 15.6708C9.33658 15.5826 5.76046 12.3878 9.80033 8.48963C12.7508 5.63754 19.5252 2.64637 25.546 1.80994L25.0203 2.75215C20.0669 3.66693 14.9976 5.74332 12.5249 8.24673Z" fill="white"/>
    <path d="M8.94676 8.46038C4.60305 12.6504 8.40105 16.1038 17.4862 16.2018L16.5907 17.7689C16.2649 17.7689 15.9471 17.7689 15.6212 17.7689C5.26271 17.7728 1.3048 13.2811 6.13025 8.39769C9.98821 4.47998 18.7236 1.21653 26.1077 0.807129L25.6919 1.55345C19.0454 2.35071 12.1171 5.39869 8.94676 8.46038Z" fill="white"/>
    <path d="M2.42821 8.44266C7.03578 3.85307 17.3703 0.336923 26.5694 0L26.2436 0.540644C18.2938 0.932415 9.42851 4.22525 5.37066 8.33688C0.29934 13.4671 4.40317 18.2957 15.2954 18.2957C15.6392 18.2957 15.9571 18.2957 16.2949 18.2781L15.3434 19.9294C14.112 20.0097 10.0182 20.233 6.11626 19.0499C-0.332326 17.091 -1.87951 12.713 2.42222 8.44266" fill="white"/>
    <path d="M20.1589 15.6239C19.5592 15.6513 18.9075 15.669 18.4637 15.6788L19.0634 14.5681C19.4972 14.5681 20.1129 14.5505 20.5846 14.5328L20.1589 15.6239Z" fill="white"/>
    <path d="M18.6277 19.663C17.8661 19.7355 16.9246 19.8138 16.2829 19.8687L17.1165 18.2605C17.6762 18.235 18.5157 18.19 19.1974 18.1449L18.6277 19.663Z" fill="white"/>
    <path d="M19.3953 17.6668C18.8536 17.702 18.174 17.7373 17.3964 17.7647L18.1959 16.2192C18.8576 16.2192 19.4733 16.1839 19.971 16.1565L19.3953 17.6668Z" fill="white"/>
    <path d="M55.0265 19.4731H50.5589C48.8917 19.4731 47.7603 19.0578 47.0947 18.2527C46.429 17.4476 46.2731 16.2312 46.6169 14.5995L48.6279 5.31645C49.0497 3.37326 49.7113 2.0765 50.5589 1.39874C51.4064 0.720975 52.8597 0.419312 54.8146 0.419312H58.6766L58.2008 2.57405H55.4023C54.5288 2.57405 53.9211 2.75622 53.4973 3.11861C53.0735 3.481 52.8097 4.12938 52.6238 5.03829L52.254 6.69744H56.9075L56.3538 9.24395H51.6963L50.6368 14.1685C50.3989 15.3105 50.3989 16.1137 50.6908 16.6073C50.9826 17.1009 51.6163 17.3321 52.5678 17.3321H55.5043L55.0265 19.4731Z" fill="white"/>
    <path d="M68.3814 19.473H64.4675L67.7477 4.38979C67.8517 3.81781 67.7997 3.41036 67.5618 3.1185C67.3239 2.82663 66.8482 2.67775 66.1865 2.67775H65.4989L61.8488 19.473H57.9369L62.0607 0.417236H68.5693C69.8126 0.417236 70.7102 0.754159 71.2399 1.428C71.7696 2.10185 71.9535 3.03622 71.6896 4.25463L68.3814 19.473Z" fill="white"/>
    <path d="M85.3863 2.56806H81.6843L78.0342 19.473H74.1203L77.7704 2.56806H74.1463L74.596 0.417236H85.8361L85.3863 2.56806Z" fill="white"/>
    <path d="M94.3556 19.4729H90.4097L92.6325 9.23009H89.5381L87.3173 19.4729H83.4034L86.4438 5.42012C86.8136 3.73551 87.5592 2.43874 88.6646 1.56705C89.77 0.695362 91.2632 0.21936 93.0623 0.21936C94.9666 0.21936 96.2626 0.633985 96.9502 1.46323C97.6379 2.31925 97.7698 3.61797 97.4 5.42992L94.3556 19.4729ZM93.1922 6.68946L93.642 4.61699C93.8259 3.83345 93.8259 3.2693 93.642 2.93238C93.4581 2.59545 93.1382 2.43874 92.5845 2.43874C91.9749 2.43874 91.5251 2.62092 91.2353 2.93238C90.9454 3.24383 90.7055 3.8119 90.5476 4.61699L90.0979 6.68946H93.1922Z" fill="white"/>
    <path d="M110.059 14.2095C109.66 16.1018 108.896 17.5024 107.839 18.4093C106.781 19.3163 105.3 19.7805 103.501 19.7805C101.756 19.7805 100.54 19.3143 99.7988 18.3564C99.0572 17.3986 98.9252 16.0469 99.323 14.2076L102.311 0.417236H106.225L103.263 14.1292C103.025 15.1674 102.973 15.8922 103.079 16.3329C103.185 16.7737 103.527 16.9813 104.108 16.9813C104.352 16.9904 104.594 16.9381 104.812 16.8294C105.029 16.7207 105.214 16.5592 105.35 16.3604C105.668 15.9686 105.932 15.2203 106.169 14.1312L109.132 0.419195H113.046L110.059 14.2095Z" fill="white"/>
    <path d="M140.182 9.99025C139.334 13.8531 138.303 16.4545 137.061 17.7924C136.464 18.4354 135.733 18.9458 134.918 19.2894C134.103 19.633 133.223 19.8018 132.336 19.7845C130.431 19.7845 129.137 19.1087 128.448 17.7865C127.758 16.4643 127.848 13.8472 128.686 9.98437C129.531 6.06666 130.589 3.4751 131.806 2.14895C132.415 1.5153 133.154 1.01459 133.974 0.679442C134.794 0.344293 135.677 0.182228 136.565 0.203808C138.496 0.203808 139.818 0.791465 140.505 1.96678C141.193 3.14209 141.087 5.82964 140.19 9.97849L140.182 9.99025ZM136.134 9.99025C136.539 8.24611 136.84 6.48008 137.033 4.70134C137.167 3.48097 136.795 2.86002 135.976 2.86002C135.156 2.86002 134.549 3.48097 134.099 4.7268C133.536 6.45344 133.077 8.21093 132.723 9.99025C132.168 12.5368 131.85 14.3722 131.798 15.4848C131.746 16.5975 132.116 17.1185 132.907 17.1185C133.699 17.1185 134.337 16.5309 134.76 15.2772C135.182 14.0607 135.632 12.2958 136.134 9.98829" fill="white"/>
    <path d="M43.4966 19.4731H39.0009C37.3618 19.4731 36.2024 19.0578 35.5368 18.2527C34.8711 17.4476 34.7172 16.2312 35.087 14.5995L37.0959 5.31645C37.5197 3.37326 38.1554 2.0765 39.0269 1.39874C39.8985 0.720975 41.3017 0.419312 43.2847 0.419312H47.1206L46.6429 2.57405H43.8444C42.9988 2.57405 42.3632 2.75622 41.9674 3.11861C41.5716 3.481 41.2537 4.12938 41.0678 5.03829L40.698 6.69744L40.1683 9.24395L39.0849 14.1685C38.847 15.3105 38.873 16.1137 39.1369 16.6073C39.4007 17.1009 40.0624 17.3321 41.0419 17.3321H43.9503L43.4966 19.4731Z" fill="white"/>
    <path d="M122.727 5.52397C122.991 4.34866 123.019 3.55336 122.859 3.14004C122.699 2.72673 122.277 2.51713 121.589 2.51713H120.558L119.289 8.39369H120.426C120.699 8.40189 120.971 8.34756 121.219 8.23501C121.467 8.12246 121.685 7.95479 121.855 7.74531C122.197 7.33004 122.489 6.57979 122.727 5.51614V5.52397ZM121.643 12.1449C121.749 11.6532 121.669 11.2889 121.457 11.0558C121.246 10.8227 120.902 10.664 120.426 10.664H118.787L116.882 19.4789H112.968L117.094 0.417236H123.071C124.71 0.417236 125.821 0.779625 126.403 1.53182C126.985 2.28403 127.142 3.37315 126.803 4.87559C126.565 6.0176 126.143 6.95002 125.507 7.64933C124.881 8.36166 124.053 8.87626 123.129 9.12826C124.026 9.23208 124.688 9.56901 125.084 10.139C125.479 10.7091 125.561 11.4103 125.375 12.2389L123.788 19.473H120.056L121.643 12.1449Z" fill="white"/>
</svg>
