<svg viewBox="0 0 166 24" fill="none" xmlns="http://www.w3.org/2000/svg">
    <path d="M14.7284 9.89605C10.7653 13.9979 13.8752 17.3522 21.6698 17.4698L20.927 18.8049C10.9792 18.6991 6.77392 14.8653 11.5245 10.1875C14.9941 6.76502 22.9603 3.17561 30.0404 2.1719L29.4222 3.30255C23.5974 4.40029 17.6362 6.89195 14.7284 9.89605Z" fill="#1A1A1A"/>
    <path d="M10.5208 10.1524C5.41293 15.1804 9.87912 19.3245 20.5627 19.4421L19.5096 21.3226C19.1265 21.3226 18.7527 21.3226 18.3696 21.3226C6.18864 21.3273 1.5344 15.9373 7.20881 10.0772C11.7455 5.37593 22.0177 1.45979 30.701 0.968506L30.212 1.86409C22.3962 2.8208 14.2489 6.47837 10.5208 10.1524Z" fill="#1A1A1A"/>
    <path d="M2.85542 10.1312C8.27361 4.62368 20.4263 0.404308 31.2439 0L30.8608 0.648773C21.5123 1.1189 11.0873 5.0703 6.31554 10.0043C0.352004 16.1605 5.17783 21.9548 17.9864 21.9548C18.3907 21.9548 18.7644 21.9548 19.1617 21.9337L18.0428 23.9153C16.5948 24.0116 11.7807 24.2796 7.19232 22.8598C-0.390793 20.5092 -2.21018 15.2556 2.84837 10.1312" fill="#1A1A1A"/>
    <path d="M23.7055 18.7487C23.0003 18.7816 22.234 18.8027 21.7122 18.8145L22.4173 17.4817C22.9274 17.4817 23.6514 17.4605 24.2062 17.4394L23.7055 18.7487Z" fill="#1A1A1A"/>
    <path d="M21.9049 23.5956C21.0093 23.6826 19.9021 23.7766 19.1476 23.8425L20.1278 21.9126C20.786 21.882 21.7732 21.828 22.5748 21.7739L21.9049 23.5956Z" fill="#1A1A1A"/>
    <path d="M22.8076 21.2002C22.1706 21.2425 21.3714 21.2848 20.457 21.3177L21.3972 19.4631C22.1753 19.4631 22.8993 19.4208 23.4846 19.3879L22.8076 21.2002Z" fill="#1A1A1A"/>
    <path d="M64.7075 23.3677H59.4539C57.4934 23.3677 56.163 22.8693 55.3802 21.9032C54.5975 20.9371 54.4141 19.4774 54.8184 17.5193L57.1832 6.3797C57.6791 4.04788 58.4572 2.49176 59.4539 1.67845C60.4505 0.865132 62.1594 0.503136 64.4583 0.503136H68.9998L68.4403 3.08882H65.1494C64.1222 3.08882 63.4076 3.30743 62.9093 3.7423C62.411 4.17716 62.1007 4.95522 61.8821 6.04591L61.4472 8.03689H66.9195L66.2683 11.0927H60.7914L59.5455 17.0022C59.2658 18.3726 59.2658 19.3363 59.609 19.9287C59.9522 20.5211 60.6974 20.7984 61.8162 20.7984H65.2693L64.7075 23.3677Z" fill="#1A1A1A"/>
    <path d="M80.412 23.3675H75.8094L79.6668 5.26769C79.7891 4.58131 79.7279 4.09238 79.4482 3.74214C79.1685 3.39189 78.609 3.21325 77.831 3.21325H77.0224L72.7301 23.3675H68.1299L72.9793 0.500626H80.6329C82.095 0.500626 83.1504 0.904933 83.7734 1.71355C84.3963 2.52216 84.6125 3.64341 84.3022 5.1055L80.412 23.3675Z" fill="#1A1A1A"/>
    <path d="M100.409 3.08161H96.0553L91.763 23.3675H87.1605L91.4528 3.08161H87.1911L87.72 0.500626H100.937L100.409 3.08161Z" fill="#1A1A1A"/>
    <path d="M110.956 23.3675H106.316L108.93 11.0761H105.291L102.679 23.3675H98.0768L101.652 6.50409C102.087 4.48255 102.964 2.92644 104.264 1.88041C105.564 0.834378 107.32 0.263176 109.435 0.263176C111.674 0.263176 113.198 0.760725 114.007 1.75582C114.816 2.78305 114.971 4.34151 114.536 6.51584L110.956 23.3675ZM109.588 8.0273L110.117 5.54033C110.333 4.60008 110.333 3.9231 110.117 3.51879C109.9 3.11449 109.524 2.92644 108.873 2.92644C108.156 2.92644 107.627 3.14504 107.287 3.51879C106.946 3.89254 106.664 4.57422 106.478 5.54033L105.949 8.0273H109.588Z" fill="#1A1A1A"/>
    <path d="M129.422 17.0514C128.952 19.3221 128.054 21.0028 126.811 22.0911C125.567 23.1795 123.826 23.7366 121.71 23.7366C119.658 23.7366 118.229 23.1771 117.357 22.0277C116.485 20.8782 116.33 19.2563 116.797 17.049L120.311 0.500626H124.914L121.43 16.955C121.151 18.2008 121.09 19.0706 121.214 19.5995C121.339 20.1284 121.741 20.3775 122.425 20.3775C122.711 20.3885 122.996 20.3257 123.252 20.1952C123.507 20.0648 123.725 19.871 123.884 19.6324C124.258 19.1622 124.568 18.2643 124.848 16.9574L128.332 0.502976H132.934L129.422 17.0514Z" fill="#1A1A1A"/>
    <path d="M164.844 11.9883C163.848 16.6237 162.635 19.7454 161.175 21.3508C160.473 22.1224 159.613 22.7349 158.655 23.1472C157.697 23.5595 156.661 23.7621 155.618 23.7414C153.378 23.7414 151.857 22.9305 151.046 21.3438C150.235 19.7571 150.341 16.6167 151.326 11.9812C152.32 7.27999 153.564 4.17011 154.995 2.57874C155.712 1.81836 156.58 1.2175 157.545 0.815324C158.509 0.413145 159.547 0.218667 160.592 0.244564C162.863 0.244564 164.416 0.949752 165.225 2.36013C166.034 3.7705 165.909 6.99556 164.854 11.9742L164.844 11.9883ZM160.084 11.9883C160.561 9.89532 160.914 7.77609 161.142 5.6416C161.299 4.17716 160.862 3.43201 159.898 3.43201C158.935 3.43201 158.22 4.17716 157.691 5.67216C157.029 7.74412 156.489 9.85311 156.074 11.9883C155.421 15.0441 155.047 17.2466 154.986 18.5818C154.925 19.917 155.359 20.5422 156.29 20.5422C157.221 20.5422 157.971 19.837 158.469 18.3326C158.965 16.8729 159.494 14.755 160.084 11.9859" fill="#1A1A1A"/>
    <path d="M51.1491 23.3677H45.8625C43.935 23.3677 42.5716 22.8693 41.7889 21.9032C41.0061 20.9371 40.8251 19.4774 41.26 17.5193L43.6224 6.3797C44.1207 4.04788 44.8682 2.49176 45.8931 1.67845C46.9179 0.865132 48.5681 0.503136 50.8999 0.503136H55.4107L54.8489 3.08882H51.5581C50.5638 3.08882 49.8163 3.30743 49.3508 3.7423C48.8854 4.17716 48.5117 4.95522 48.293 6.04591L47.8582 8.03689L47.2353 11.0927L45.9612 17.0022C45.6815 18.3726 45.7121 19.3363 46.0223 19.9287C46.3326 20.5211 47.1107 20.7984 48.2625 20.7984H51.6826L51.1491 23.3677Z" fill="#1A1A1A"/>
    <path d="M144.318 6.62871C144.629 5.21833 144.662 4.26398 144.474 3.768C144.286 3.27201 143.79 3.0205 142.981 3.0205H141.768L140.275 10.0724H141.613C141.934 10.0822 142.253 10.017 142.545 9.88195C142.837 9.74689 143.093 9.54569 143.294 9.29432C143.696 8.79598 144.039 7.89569 144.318 6.6193V6.62871ZM143.044 14.5738C143.169 13.9838 143.075 13.5466 142.826 13.2669C142.577 12.9872 142.172 12.7968 141.613 12.7968H139.685L137.445 23.3746H132.843L137.694 0.500626H144.723C146.65 0.500626 147.957 0.935491 148.641 1.83813C149.325 2.74077 149.511 4.04772 149.111 5.85065C148.832 7.22107 148.336 8.33996 147.588 9.17914C146.851 10.0339 145.878 10.6515 144.791 10.9539C145.846 11.0784 146.624 11.4827 147.09 12.1668C147.555 12.8508 147.652 13.6923 147.433 14.6867L145.567 23.3675H141.178L143.044 14.5738Z" fill="#1A1A1A"/>
</svg>
