<svg xmlns="http://www.w3.org/2000/svg" id="icon_avaliar-pedido" viewBox="0 0 24 24">
	<path id="Caminho_841" d="M18.923 7.767h-2.789l1.208-.875a.734.734 0 0 0-.431-1.326l-3.223.006-.988-3.065a.735.735 0 0 0-1.4 0l-.99 3.066-3.17-.005a.735.735 0 0 0-.483 1.326l1.207.873H5.078A1.78 1.78 0 0 0 3.3 9.545v10.678A1.78 1.78 0 0 0 5.078 22h13.845a1.78 1.78 0 0 0 1.777-1.777V9.545a1.781 1.781 0 0 0-1.777-1.778zM14.2 7.343c-1.215.84-1.236.9-.752 2.269.055.155.116.329.183.524-.165-.123-.309-.235-.439-.335-.577-.442-.882-.663-1.188-.663s-.609.222-1.186.663c-.13.1-.276.212-.44.334.075-.217.145-.406.206-.573.47-1.289.445-1.353-.887-2.292l-.327-.23c.2 0 .376.007.535.011 1.464.035 1.526 0 1.945-1.411l.154-.514c.043.134.08.258.116.374.475 1.542.535 1.585 2.024 1.55.148 0 .312-.008.493-.01-.165.113-.31.213-.437.303zm-5.929 4.5a.734.734 0 0 0 1.164.793L12 10.766l2.563 1.868a.734.734 0 0 0 1.192-.7l-.875-2.696h4.043a.307.307 0 0 1 .308.307v10.678a.308.308 0 0 1-.308.307H5.078a.311.311 0 0 1-.307-.307V9.545a.306.306 0 0 1 .307-.307H9.12z" data-name="Caminho 841"/>
	<path id="Caminho_842" d="M7.947 18.457h7.565a.735.735 0 0 0 0-1.47H7.947a.735.735 0 0 0 0 1.47z" data-name="Caminho 842"/>
    <path id="Caminho_843" d="M7.947 15.631h7.565a.736.736 0 0 0 0-1.471H7.947a.736.736 0 0 0 0 1.471z" data-name="Caminho 843"/>
</svg>
