<svg width="34" height="39" viewBox="0 0 34 39" fill="none" xmlns="http://www.w3.org/2000/svg">
    <path fill-rule="evenodd" clip-rule="evenodd" d="M0.661743 1.99996C0.661743 2.73329 1.26174 3.33329 1.99508 3.33329H3.32841L8.12841 13.4533L6.32841 16.7066C5.35508 18.4933 6.63508 20.6666 8.66174 20.6666H23.3284C24.0617 20.6666 24.6617 20.0666 24.6617 19.3333C24.6617 18.6 24.0617 18 23.3284 18H8.66174L10.1284 15.3333H20.0617C21.0617 15.3333 21.9417 14.7866 22.3951 13.96L27.1684 5.30663C27.6617 4.42663 27.0217 3.33329 26.0084 3.33329H6.27508L5.38174 1.42663C5.16841 0.959959 4.68841 0.666626 4.18174 0.666626H1.99508C1.26174 0.666626 0.661743 1.26663 0.661743 1.99996ZM8.66175 22C7.19508 22 6.00841 23.2 6.00841 24.6666C6.00841 26.1333 7.19508 27.3333 8.66175 27.3333C10.1284 27.3333 11.3284 26.1333 11.3284 24.6666C11.3284 23.2 10.1284 22 8.66175 22ZM19.3417 24.6666C19.3417 23.2 20.5284 22 21.9951 22C23.4617 22 24.6617 23.2 24.6617 24.6666C24.6617 26.1333 23.4617 27.3333 21.9951 27.3333C20.5284 27.3333 19.3417 26.1333 19.3417 24.6666Z" fill="white"/>
</svg>
