<svg xmlns="http://www.w3.org/2000/svg" id="prefix__img_popup_sadface" viewBox="0 0 85 85">
    <defs>
        <style>
            .prefix__cls-1{fill:#f28d1f}
        </style>
    </defs>
    <path id="prefix__Path_438" d="M42.5 0A42.5 42.5 0 1 0 85 42.5 42.547 42.547 0 0 0 42.5 0zm0 79A36.5 36.5 0 1 1 79 42.5 36.54 36.54 0 0 1 42.5 79z" class="prefix__cls-1" data-name="Path 438"/>
    <g id="prefix__Group_605" data-name="Group 605" transform="translate(23.03 48.235)">
        <path id="prefix__Path_439" d="M44.5 19.1a2.952 2.952 0 0 0-1.27-1.9 33.085 33.085 0 0 0-36.29 0 3 3 0 0 0 3.36 4.972 27.009 27.009 0 0 1 29.592 0 2.957 2.957 0 0 0 1.671.512A2.994 2.994 0 0 0 44.5 19.1z" class="prefix__cls-1" data-name="Path 439" transform="translate(-5.622 -11.775)"/>
        <path id="prefix__Path_440" d="M16.836 15.026a9.973 9.973 0 0 0-7.207 0 1.823 1.823 0 1 0 1.3 3.407 6.361 6.361 0 0 1 4.614 0 1.823 1.823 0 0 0 2.3-2.451 1.806 1.806 0 0 0-1.007-.956z" class="prefix__cls-1" data-name="Path 440" transform="translate(6.237 -2.437)"/>
    </g>
    <path id="prefix__Path_441" d="M27.231 13.807a7.169 7.169 0 1 1-7.169-7.169 7.171 7.171 0 0 1 7.169 7.169zm-5.157-2.974a1.639 1.639 0 1 0 1.639 1.639 1.638 1.638 0 0 0-1.639-1.639z" class="prefix__cls-1" data-name="Path 441" transform="translate(39.925 20.554)"/>
    <path id="prefix__Path_443" d="M27.231 13.807a7.169 7.169 0 1 1-7.169-7.169 7.171 7.171 0 0 1 7.169 7.169zm-5.157-2.974a1.639 1.639 0 1 0 1.639 1.639 1.638 1.638 0 0 0-1.639-1.639z" class="prefix__cls-1" data-name="Path 443" transform="translate(4.926 20.554)"/>
</svg>