<svg xmlns="http://www.w3.org/2000/svg" viewBox="0 0 12.546 11.997">
  <path
    d="M17.471 4.548c-.042-.126-.181-.349-.627-.377l-3.679-.223c-.014 0-.042-.028-.042-.028L11.77.474C11.6.056 11.366 0 11.227 0s-.376.056-.544.474L9.331 3.906c-.014.014-.028.028-.042.028L5.6 4.171c-.446.028-.585.237-.627.377s-.056.377.293.67L8.1 7.561a.084.084 0 0 1 .014.056l-.934 3.571a.7.7 0 0 0 .07.628c.167.209.474.237.808.014l3.108-1.981h.056l3.108 1.995a.9.9 0 0 0 .446.153.431.431 0 0 0 .362-.167.686.686 0 0 0 .07-.628l-.92-3.571c0-.014.014-.042.014-.056l2.857-2.344c.381-.306.354-.558.312-.683z"
    transform="translate(-4.948)"
  />
</svg>
